<svg width="24" height="24" viewBox="0 0 24 24" fill="none" xmlns="http://www.w3.org/2000/svg">
<g clip-path="url(#clip0_59_2392)">
<path d="M1.20007 22.8137L3.18318 18.2465C1.666 16.0928 0.98694 13.4594 1.27344 10.8406C1.55994 8.22179 2.79231 5.79754 4.73927 4.02281C6.68623 2.24809 9.21394 1.24489 11.848 1.20148C14.4821 1.15808 17.0415 2.07745 19.0459 3.78706C21.0503 5.49668 22.3618 7.87901 22.7345 10.487C23.1071 13.0949 22.5152 15.7492 21.0698 17.9518C19.6244 20.1543 17.4248 21.7536 14.884 22.4496C12.3432 23.1456 9.63565 22.8904 7.26959 21.732L1.20007 22.8137" stroke="#333333" stroke-width="1.5" stroke-linecap="round" stroke-linejoin="round"/>
<path d="M8.41125 9.59262C8.41125 9.752 8.47457 9.90485 8.58727 10.0176C8.69996 10.1303 8.85282 10.1936 9.0122 10.1936C9.17158 10.1936 9.32443 10.1303 9.43713 10.0176C9.54983 9.90485 9.61314 9.752 9.61314 9.59262V8.39074C9.61314 8.23136 9.54983 8.0785 9.43713 7.96581C9.32443 7.85311 9.17158 7.78979 9.0122 7.78979C8.85282 7.78979 8.69996 7.85311 8.58727 7.96581C8.47457 8.0785 8.41125 8.23136 8.41125 8.39074V9.59262ZM8.41125 9.59262C8.41125 11.1864 9.04439 12.7149 10.1714 13.8419C11.2984 14.9689 12.8269 15.602 14.4207 15.602H15.6226C15.7819 15.602 15.9348 15.5387 16.0475 15.426C16.1602 15.3133 16.2235 15.1605 16.2235 15.0011C16.2235 14.8417 16.1602 14.6889 16.0475 14.5762C15.9348 14.4635 15.7819 14.4002 15.6226 14.4002H14.4207C14.2613 14.4002 14.1084 14.4635 13.9957 14.5762C13.883 14.6889 13.8197 14.8417 13.8197 15.0011C13.8197 15.1605 13.883 15.3133 13.9957 15.426C14.1084 15.5387 14.2613 15.602 14.4207 15.602" stroke="#333333" stroke-width="1.5" stroke-linecap="round" stroke-linejoin="round"/>
</g>
<defs>
<clipPath id="clip0_59_2392">
<rect width="24" height="24" fill="white"/>
</clipPath>
</defs>
</svg>
